<svg width="24" height="24" viewBox="0 0 24 24" fill="none" xmlns="http://www.w3.org/2000/svg">
<path d="M16.5 12C16.5011 11.1398 16.222 10.3025 15.705 9.615L17.7 7.635C18.0901 7.79726 18.5075 7.8838 18.93 7.89C19.3122 7.902 19.693 7.83856 20.0507 7.70331C20.4083 7.56806 20.7358 7.36364 21.0144 7.10174C21.2931 6.83984 21.5173 6.5256 21.6744 6.17699C21.8315 5.82837 21.9184 5.4522 21.93 5.07C21.93 4.27435 21.6139 3.51129 21.0513 2.94868C20.4887 2.38607 19.7256 2.07 18.93 2.07C18.1343 2.07 17.3713 2.38607 16.8087 2.94868C16.2461 3.51129 15.93 4.27435 15.93 5.07C15.9319 5.53399 16.0561 5.98928 16.29 6.39L14.295 8.385C13.5937 7.99248 12.8037 7.78593 12 7.785C11.0077 7.77133 10.0388 8.08603 9.2439 8.68015C8.44903 9.27426 7.87284 10.1145 7.605 11.07H6.57C6.34346 10.5098 5.95303 10.0311 5.44986 9.69656C4.94668 9.362 4.3542 9.18718 3.75 9.195C2.98063 9.17071 2.23298 9.45223 1.67072 9.97795C1.10846 10.5037 0.777391 11.2307 0.75 12C0.761638 12.3822 0.848488 12.7584 1.00559 13.107C1.16268 13.4556 1.38695 13.7698 1.66556 14.0317C1.94418 14.2936 2.27167 14.4981 2.62934 14.6333C2.987 14.7686 3.36781 14.832 3.75 14.82C4.3542 14.8278 4.94668 14.653 5.44986 14.3184C5.95303 13.9839 6.34346 13.5052 6.57 12.945H7.605C7.87284 13.9005 8.44903 14.7407 9.2439 15.3349C10.0388 15.929 11.0077 16.2437 12 16.23C12.5733 16.248 13.1445 16.1528 13.681 15.95C14.2175 15.7471 14.7087 15.4405 15.1267 15.0476C15.5446 14.6548 15.881 14.1834 16.1166 13.6605C16.3523 13.1376 16.4825 12.5733 16.5 12ZM18.93 4.14C19.2023 4.11492 19.4736 4.19866 19.6844 4.37292C19.8952 4.54718 20.0284 4.79779 20.055 5.07C20.0113 5.33684 19.8741 5.57945 19.6681 5.75451C19.462 5.92957 19.2004 6.02568 18.93 6.02568C18.6596 6.02568 18.398 5.92957 18.1919 5.75451C17.9859 5.57945 17.8487 5.33684 17.805 5.07C17.8353 4.79935 17.9696 4.55107 18.1795 4.37755C18.3894 4.20403 18.6585 4.11886 18.93 4.14ZM3.75 12.945C3.47614 12.9659 3.20499 12.8787 2.99469 12.702C2.78438 12.5254 2.65167 12.2734 2.625 12C2.6553 11.7294 2.78957 11.4811 2.99948 11.3076C3.20938 11.134 3.47849 11.0489 3.75 11.07C4.02151 11.0489 4.29062 11.134 4.50052 11.3076C4.71043 11.4811 4.8447 11.7294 4.875 12C4.84833 12.2734 4.71562 12.5254 4.50531 12.702C4.29501 12.8787 4.02386 12.9659 3.75 12.945ZM12 14.355C11.3404 14.3878 10.6945 14.1587 10.2029 13.7177C9.71127 13.2766 9.41373 12.6593 9.375 12C9.41368 11.3419 9.71173 10.726 10.2038 10.2874C10.6959 9.84875 11.3418 9.62312 12 9.66C12.6572 9.6271 13.3009 9.85411 13.7921 10.292C14.2833 10.7298 14.5825 11.3434 14.625 12C14.5825 12.6579 14.2838 13.2729 13.7931 13.7132C13.3024 14.1534 12.6586 14.3838 12 14.355Z" fill="#262626"/>
<path d="M3.75 6.57C4.1734 6.57275 4.59259 6.48585 4.98 6.315L7.62 9C8.00226 8.48953 8.46899 8.04817 9 7.695L6.39 5.07C6.62391 4.66928 6.74808 4.21399 6.75 3.75C6.72261 2.98074 6.39154 2.25366 5.82928 1.72795C5.26702 1.20223 4.51937 0.920707 3.75 0.945001C2.98063 0.920707 2.23298 1.20223 1.67072 1.72795C1.10846 2.25366 0.777391 2.98074 0.75 3.75C0.761638 4.13221 0.848488 4.50837 1.00559 4.85699C1.16268 5.20561 1.38695 5.51985 1.66556 5.78174C1.94418 6.04364 2.27167 6.24806 2.62934 6.38331C2.987 6.51857 3.36781 6.58201 3.75 6.57ZM3.75 2.82C4.02151 2.79886 4.29062 2.88403 4.50052 3.05755C4.71043 3.23107 4.8447 3.47936 4.875 3.75C4.84833 4.02336 4.71562 4.27538 4.50531 4.45204C4.29501 4.6287 4.02386 4.71592 3.75 4.695C3.47614 4.71592 3.20499 4.6287 2.99469 4.45204C2.78438 4.27538 2.65167 4.02336 2.625 3.75C2.6553 3.47936 2.78957 3.23107 2.99948 3.05755C3.20938 2.88403 3.47849 2.79886 3.75 2.82ZM20.25 17.445C19.8266 17.4423 19.4074 17.5292 19.02 17.7L16.38 15C15.9894 15.4957 15.5177 15.9217 14.985 16.26L17.595 18.87C17.3657 19.2719 17.2466 19.7273 17.25 20.19C17.25 20.9857 17.5661 21.7487 18.1287 22.3113C18.6913 22.8739 19.4544 23.19 20.25 23.19C21.0456 23.19 21.8087 22.8739 22.3713 22.3113C22.9339 21.7487 23.25 20.9857 23.25 20.19C23.2073 19.4314 22.8696 18.7195 22.309 18.2066C21.7484 17.6936 21.0094 17.4203 20.25 17.445ZM20.25 21.195C19.9761 21.2159 19.705 21.1287 19.4947 20.952C19.2844 20.7754 19.1517 20.5234 19.125 20.25C19.1687 19.9832 19.3059 19.7406 19.5119 19.5655C19.718 19.3904 19.9796 19.2943 20.25 19.2943C20.5204 19.2943 20.782 19.3904 20.9881 19.5655C21.1941 19.7406 21.3313 19.9832 21.375 20.25C21.3483 20.5234 21.2156 20.7754 21.0053 20.952C20.795 21.1287 20.5239 21.2159 20.25 21.195Z" fill="#262626"/>
</svg>
