<svg width="24" height="24" viewBox="0 0 24 24" fill="none" xmlns="http://www.w3.org/2000/svg">
<path d="M8.397 11.235C8.59206 11.196 8.76365 11.0811 8.87402 10.9156C8.98438 10.7501 9.02448 10.5476 8.9855 10.3525C8.94651 10.1574 8.83163 9.98585 8.66613 9.87549C8.50063 9.76512 8.29806 9.72502 8.103 9.76401C7.2 9.94401 6.518 10.576 6.155 11.423C5.795 12.261 5.742 13.309 6.023 14.431C6.04494 14.5285 6.08615 14.6207 6.14422 14.702C6.20228 14.7834 6.27602 14.8523 6.3611 14.9048C6.44618 14.9572 6.54089 14.9921 6.63966 15.0075C6.73843 15.0228 6.83927 15.0182 6.93625 14.994C7.03323 14.9699 7.12439 14.9265 7.20439 14.8666C7.28438 14.8067 7.35159 14.7313 7.40206 14.6451C7.45253 14.5588 7.48525 14.4633 7.49829 14.3642C7.51133 14.2651 7.50443 14.1644 7.478 14.068C7.258 13.19 7.33 12.488 7.533 12.014C7.733 11.548 8.051 11.304 8.397 11.234V11.235ZM5.471 3.41901C5.42832 4.12898 5.53229 4.84013 5.77642 5.50817C6.02055 6.17622 6.39961 6.78684 6.89 7.30201C5.93736 7.57514 5.08446 8.11888 4.43479 8.86725C3.78511 9.61561 3.36659 10.5364 3.23 11.518C2.90085 13.8732 3.38407 16.2703 4.6 18.314L4.95 18.904C4.96326 18.9257 4.97761 18.9467 4.993 18.967L6.409 20.873C6.70891 21.277 7.09328 21.6107 7.53532 21.851C7.97737 22.0913 8.46647 22.2323 8.96858 22.2643C9.47069 22.2963 9.97373 22.2184 10.4427 22.0362C10.9116 21.8539 11.3352 21.5717 11.684 21.209C11.7248 21.1666 11.7737 21.1329 11.8278 21.1098C11.8819 21.0868 11.9402 21.0749 11.999 21.0749C12.0578 21.0749 12.116 21.0868 12.1702 21.1098C12.2243 21.1329 12.2732 21.1666 12.314 21.209C12.6627 21.5717 13.0863 21.8539 13.5553 22.0362C14.0243 22.2184 14.5273 22.2963 15.0294 22.2643C15.5315 22.2323 16.0206 22.0913 16.4627 21.851C16.9047 21.6107 17.2891 21.277 17.589 20.873L19.005 18.966C19.0201 18.9457 19.0341 18.9247 19.047 18.903L19.398 18.313C20.6147 16.2699 21.099 13.8732 20.771 11.518C20.6742 10.824 20.4359 10.1573 20.071 9.5591C19.7061 8.96091 19.2223 8.44399 18.6496 8.04034C18.0768 7.63669 17.4273 7.3549 16.7412 7.21242C16.0551 7.06994 15.3471 7.0698 14.661 7.21201L12.76 7.60601H12.757C12.787 6.82601 12.909 5.98601 13.148 5.26801C13.438 4.40001 13.84 3.87801 14.288 3.69201C14.4717 3.61536 14.6174 3.46889 14.693 3.28482C14.7687 3.10076 14.7681 2.89417 14.6915 2.71051C14.6148 2.52684 14.4684 2.38115 14.2843 2.30548C14.1002 2.22981 13.8937 2.23036 13.71 2.30701C12.658 2.74601 12.06 3.78701 11.725 4.79301L11.679 4.93501C11.4327 4.45916 11.1147 4.02406 10.736 3.64501C10.2174 3.1258 9.59437 2.72269 8.90824 2.46238C8.22211 2.20206 7.4885 2.09047 6.756 2.13501C6.42171 2.15425 6.10611 2.29551 5.86907 2.53201C5.63202 2.7685 5.49002 3.08377 5.47 3.41801L5.471 3.41901ZM6.964 3.62601C7.46581 3.61152 7.96527 3.69987 8.43166 3.8856C8.89806 4.07133 9.32152 4.35053 9.676 4.70601C10.0315 5.06048 10.3107 5.48394 10.4964 5.95034C10.6821 6.41673 10.7705 6.9162 10.756 7.41801C10.5746 7.42293 10.3931 7.41457 10.213 7.39301L9.596 7.26501C9.00955 7.09005 8.47607 6.77141 8.044 6.33801C7.68852 5.98353 7.40932 5.56007 7.22359 5.09367C7.03786 4.62728 6.94951 4.12781 6.964 3.62601ZM9.033 8.68001L9.235 8.72201C9.475 8.79001 9.719 8.84101 9.965 8.87401L10.935 9.07401C11.6375 9.21955 12.3625 9.21955 13.065 9.07401L14.967 8.68001C15.4521 8.57946 15.9528 8.57957 16.4379 8.68034C16.923 8.7811 17.3823 8.98038 17.7872 9.26583C18.1922 9.55128 18.5343 9.91682 18.7922 10.3398C19.0502 10.7628 19.2186 11.2343 19.287 11.725C19.5678 13.7427 19.1527 15.7959 18.11 17.546L17.779 18.103L16.386 19.979C16.216 20.208 15.9981 20.3972 15.7475 20.5334C15.497 20.6696 15.2197 20.7495 14.9351 20.7676C14.6504 20.7857 14.3653 20.7415 14.0995 20.6381C13.8337 20.5347 13.5936 20.3746 13.396 20.169C13.2153 19.981 12.9986 19.8314 12.7587 19.7292C12.5188 19.627 12.2607 19.5744 12 19.5744C11.7393 19.5744 11.4812 19.627 11.2413 19.7292C11.0014 19.8314 10.7847 19.981 10.604 20.169C10.4064 20.3746 10.1663 20.5347 9.9005 20.6381C9.6347 20.7415 9.34955 20.7857 9.06493 20.7676C8.7803 20.7495 8.50304 20.6696 8.25246 20.5334C8.00188 20.3972 7.784 20.208 7.614 19.979L6.221 18.103L5.89 17.546C4.84768 15.7958 4.43289 13.7426 4.714 11.725C4.7824 11.2344 4.95077 10.763 5.20868 10.3401C5.46659 9.91718 5.80856 9.55169 6.21342 9.26626C6.61828 8.98082 7.07741 8.78152 7.5624 8.68068C8.04739 8.57984 8.54792 8.57961 9.033 8.68001Z" fill="#262626"/>
</svg>
