<svg width="24" height="24" viewBox="0 0 24 24" fill="none" xmlns="http://www.w3.org/2000/svg">
<path d="M18.85 10L18.65 8.95C18.5 8.9 18.3627 8.83733 18.238 8.762C18.1127 8.68733 18 8.6 17.9 8.5L16.85 8.85L16.15 7.65L17 6.9C16.9667 6.81667 16.95 6.75 16.95 6.7V6.3C16.95 6.25 16.9667 6.18333 17 6.1L16.15 5.35L16.85 4.15L17.9 4.5C18 4.4 18.1127 4.31233 18.238 4.237C18.3627 4.16233 18.5 4.1 18.65 4.05L18.85 3H20.25L20.45 4.05C20.6 4.1 20.7377 4.16233 20.863 4.237C20.9877 4.31233 21.1 4.4 21.2 4.5L22.25 4.15L22.95 5.35L22.1 6.1C22.1333 6.18333 22.15 6.25 22.15 6.3V6.7C22.15 6.75 22.1333 6.81667 22.1 6.9L22.95 7.65L22.25 8.85L21.2 8.5C21.1 8.6 20.9877 8.68733 20.863 8.762C20.7377 8.83733 20.6 8.9 20.45 8.95L20.25 10H18.85ZM19.55 7.75C19.9 7.75 20.196 7.629 20.438 7.387C20.6793 7.14567 20.8 6.85 20.8 6.5C20.8 6.15 20.6793 5.854 20.438 5.612C20.196 5.37067 19.9 5.25 19.55 5.25C19.2 5.25 18.9043 5.37067 18.663 5.612C18.421 5.854 18.3 6.15 18.3 6.5C18.3 6.85 18.421 7.14567 18.663 7.387C18.9043 7.629 19.2 7.75 19.55 7.75ZM16.55 15L16.4 14.25C16.3 14.2167 16.2043 14.179 16.113 14.137C16.021 14.0957 15.9333 14.0333 15.85 13.95L15.15 14.2L14.65 13.3L15.2 12.8V12.2L14.65 11.7L15.15 10.8L15.85 11.05C15.9167 10.9833 16 10.925 16.1 10.875C16.2 10.825 16.3 10.7833 16.4 10.75L16.55 10H17.55L17.7 10.75C17.8 10.7833 17.9 10.825 18 10.875C18.1 10.925 18.1833 10.9833 18.25 11.05L18.95 10.8L19.45 11.7L18.9 12.2V12.8L19.45 13.3L18.95 14.2L18.25 13.95C18.1667 14.0333 18.0793 14.0957 17.988 14.137C17.896 14.179 17.8 14.2167 17.7 14.25L17.55 15H16.55ZM17.05 13.25C17.25 13.25 17.425 13.175 17.575 13.025C17.725 12.875 17.8 12.7 17.8 12.5C17.8 12.3 17.725 12.125 17.575 11.975C17.425 11.825 17.25 11.75 17.05 11.75C16.85 11.75 16.675 11.825 16.525 11.975C16.375 12.125 16.3 12.3 16.3 12.5C16.3 12.7 16.375 12.875 16.525 13.025C16.675 13.175 16.85 13.25 17.05 13.25ZM9.04999 13C7.94999 13 7.00832 12.6083 6.22499 11.825C5.44165 11.0417 5.04999 10.1 5.04999 9H4.29999V8H5.04999C5.04999 7.25 5.23332 6.575 5.59999 5.975C5.96665 5.375 6.44999 4.9 7.04999 4.55V5.5C7.04999 5.65 7.09599 5.77067 7.18799 5.862C7.27932 5.954 7.39999 6 7.54999 6C7.69999 6 7.82099 5.954 7.91299 5.862C8.00432 5.77067 8.04999 5.65 8.04999 5.5V4.15C8.19999 4.1 8.35832 4.06233 8.52499 4.037C8.69165 4.01233 8.86665 4 9.04999 4C9.23332 4 9.40832 4.01233 9.57499 4.037C9.74165 4.06233 9.89999 4.1 10.05 4.15V5.5C10.05 5.65 10.096 5.77067 10.188 5.862C10.2793 5.954 10.4 6 10.55 6C10.7 6 10.821 5.954 10.913 5.862C11.0043 5.77067 11.05 5.65 11.05 5.5V4.55C11.65 4.9 12.1333 5.375 12.5 5.975C12.8667 6.575 13.05 7.25 13.05 8H13.8V9H13.05C13.05 10.1 12.6583 11.0417 11.875 11.825C11.0917 12.6083 10.15 13 9.04999 13ZM9.04999 11C9.59999 11 10.071 10.804 10.463 10.412C10.8543 10.0207 11.05 9.55 11.05 9H7.04999C7.04999 9.55 7.24599 10.0207 7.63799 10.412C8.02932 10.804 8.49999 11 9.04999 11ZM1.04999 21V18.2C1.04999 17.65 1.19165 17.1333 1.47499 16.65C1.75832 16.1667 2.14999 15.8 2.64999 15.55C3.49999 15.1167 4.45832 14.75 5.52499 14.45C6.59165 14.15 7.76665 14 9.04999 14C10.3333 14 11.5083 14.15 12.575 14.45C13.6417 14.75 14.6 15.1167 15.45 15.55C15.95 15.8 16.3417 16.1667 16.625 16.65C16.9083 17.1333 17.05 17.65 17.05 18.2V21H1.04999ZM3.04999 19H15.05V18.2C15.05 18.0167 15.0043 17.85 14.913 17.7C14.821 17.55 14.7 17.4333 14.55 17.35C13.95 17.05 13.1793 16.75 12.238 16.45C11.296 16.15 10.2333 16 9.04999 16C7.86665 16 6.80432 16.15 5.86299 16.45C4.92099 16.75 4.14999 17.05 3.54999 17.35C3.39999 17.4333 3.27932 17.55 3.18799 17.7C3.09599 17.85 3.04999 18.0167 3.04999 18.2V19Z" fill="#262626"/>
</svg>
