<svg width="40" height="40" viewBox="0 0 40 40" fill="none" xmlns="http://www.w3.org/2000/svg">
<path d="M34.8718 18H20.5128C19.3815 18 18.4615 18.897 18.4615 20V36C18.4615 37.103 19.3815 38 20.5128 38H34.8718C36.0031 38 36.9231 37.103 36.9231 36V20C36.9231 18.897 36.0031 18 34.8718 18ZM20.5128 36V20H34.8718L34.8728 36H20.5128Z" fill="#FFFFFE"/>
<path d="M22.5641 28H24.6154V30H22.5641V28ZM22.5641 32H24.6154V34H22.5641V32ZM26.6667 28H28.7179V30H26.6667V28ZM22.5641 22H32.8205V26H22.5641V22ZM26.6667 32H28.7179V34H26.6667V32ZM30.7692 28H32.8205V34H30.7692V28Z" fill="#FFFFFE"/>
<path d="M10 17L9.23078 20L8.20514 21H16.4103L15.3846 20L14.6154 17H10ZM3.07693 13H21.5385H3.07693ZM5.12822 17H19.4872C20.0312 17 20.553 16.7893 20.9377 16.4142C21.3224 16.0391 21.5385 15.5304 21.5385 15V5C21.5385 4.46957 21.3224 3.96086 20.9377 3.58579C20.553 3.21071 20.0312 3 19.4872 3H5.12822C4.58418 3 4.06243 3.21071 3.67774 3.58579C3.29305 3.96086 3.07693 4.46957 3.07693 5V15C3.07693 15.5304 3.29305 16.0391 3.67774 16.4142C4.06243 16.7893 4.58418 17 5.12822 17Z" stroke="#FFFFFE" stroke-width="2" stroke-linecap="round" stroke-linejoin="round"/>
</svg>
