<svg width="40" height="40" viewBox="0 0 40 40" fill="none" xmlns="http://www.w3.org/2000/svg">
<path d="M25.641 28C24.5128 28 23.547 27.6083 22.7436 26.825C21.9402 26.0417 21.5384 25.1 21.5384 24C21.5384 22.9 21.9402 21.9583 22.7436 21.175C23.547 20.3917 24.5128 20 25.641 20C26.7692 20 27.735 20.3917 28.5384 21.175C29.3419 21.9583 29.7436 22.9 29.7436 24C29.7436 25.1 29.3419 26.0417 28.5384 26.825C27.735 27.6083 26.7692 28 25.641 28ZM17.4359 36V33.2C17.4359 32.65 17.5812 32.1333 17.8718 31.65C18.1624 31.1667 18.5641 30.8 19.0769 30.55C19.9487 30.1167 20.9316 29.75 22.0256 29.45C23.1196 29.15 24.3248 29 25.641 29H26C26.1025 29 26.2051 29.0167 26.3077 29.05C26.1709 29.35 26.0554 29.6627 25.961 29.988C25.8673 30.3127 25.7949 30.65 25.7436 31H25.641C24.4273 31 23.3374 31.15 22.3713 31.45C21.4058 31.75 20.6154 32.05 20 32.35C19.8461 32.4333 19.7224 32.55 19.6287 32.7C19.5343 32.85 19.4872 33.0167 19.4872 33.2V34H25.9487C26.0513 34.35 26.188 34.696 26.359 35.038C26.5299 35.3793 26.7179 35.7 26.9231 36H17.4359ZM31.7949 37L31.4872 35.5C31.282 35.4167 31.0896 35.3293 30.9097 35.238C30.7306 35.146 30.547 35.0333 30.359 34.9L28.8718 35.35L27.8461 33.65L29.0256 32.65C28.9914 32.4167 28.9743 32.2 28.9743 32C28.9743 31.8 28.9914 31.5833 29.0256 31.35L27.8461 30.35L28.8718 28.65L30.359 29.1C30.547 28.9667 30.7306 28.854 30.9097 28.762C31.0896 28.6707 31.282 28.5833 31.4872 28.5L31.7949 27H33.8461L34.1538 28.5C34.359 28.5833 34.5514 28.675 34.7313 28.775C34.9104 28.875 35.094 29 35.282 29.15L36.7692 28.65L37.7949 30.4L36.6154 31.4C36.6496 31.6 36.6667 31.8083 36.6667 32.025C36.6667 32.2417 36.6496 32.45 36.6154 32.65L37.7949 33.65L36.7692 35.35L35.282 34.9C35.094 35.0333 34.9104 35.146 34.7313 35.238C34.5514 35.3293 34.359 35.4167 34.1538 35.5L33.8461 37H31.7949ZM32.8205 34C33.3846 34 33.8677 33.8043 34.2697 33.413C34.6711 33.021 34.8718 32.55 34.8718 32C34.8718 31.45 34.6711 30.979 34.2697 30.587C33.8677 30.1957 33.3846 30 32.8205 30C32.2564 30 31.7737 30.1957 31.3723 30.587C30.9702 30.979 30.7692 31.45 30.7692 32C30.7692 32.55 30.9702 33.021 31.3723 33.413C31.7737 33.8043 32.2564 34 32.8205 34ZM25.641 26C26.2051 26 26.6882 25.804 27.0902 25.412C27.4916 25.0207 27.6923 24.55 27.6923 24C27.6923 23.45 27.4916 22.9793 27.0902 22.588C26.6882 22.196 26.2051 22 25.641 22C25.0769 22 24.5942 22.196 24.1928 22.588C23.7908 22.9793 23.5897 23.45 23.5897 24C23.5897 24.55 23.7908 25.0207 24.1928 25.412C24.5942 25.804 25.0769 26 25.641 26Z" fill="#262626"/>
<path d="M10 17L9.23078 20L8.20514 21H16.4103L15.3846 20L14.6154 17H10ZM3.07693 13H21.5385H3.07693ZM5.12822 17H19.4872C20.0312 17 20.553 16.7893 20.9377 16.4142C21.3224 16.0391 21.5385 15.5304 21.5385 15V5C21.5385 4.46957 21.3224 3.96086 20.9377 3.58579C20.553 3.21071 20.0312 3 19.4872 3H5.12822C4.58418 3 4.06243 3.21071 3.67774 3.58579C3.29305 3.96086 3.07693 4.46957 3.07693 5V15C3.07693 15.5304 3.29305 16.0391 3.67774 16.4142C4.06243 16.7893 4.58418 17 5.12822 17Z" stroke="#262626" stroke-width="2" stroke-linecap="round" stroke-linejoin="round"/>
</svg>
