<svg width="24" height="24" viewBox="0 0 24 24" fill="none" xmlns="http://www.w3.org/2000/svg">
<path d="M10 21C9.71666 21 9.47933 20.904 9.288 20.712C9.096 20.5207 9 20.2833 9 20V18H8C7.45 18 6.97933 17.8043 6.588 17.413C6.196 17.021 6 16.55 6 16V14H5C4.6 14 4.31266 13.8333 4.138 13.5C3.96266 13.1667 3.96666 12.8333 4.15 12.5L6.125 9C6.25833 7.33333 6.99166 5.91667 8.325 4.75C9.65833 3.58333 11.2167 3 13 3C14.9333 3 16.5833 3.68333 17.95 5.05C19.3167 6.41667 20 8.06667 20 10C20 11.4167 19.6293 12.6833 18.888 13.8C18.146 14.9167 17.1833 15.7667 16 16.35V20C16 20.2833 15.9043 20.5207 15.713 20.712C15.521 20.904 15.2833 21 15 21H10ZM11 19H14V15.05L14.9 14.65C15.8 14.25 16.5417 13.6373 17.125 12.812C17.7083 11.9873 18 11.05 18 10C18 8.61667 17.5127 7.43767 16.538 6.463C15.5627 5.48767 14.3833 5 13 5C11.6667 5 10.5207 5.446 9.562 6.338C8.604 7.22933 8.08333 8.375 8 9.775L6.725 12H8V16H11V19ZM12.45 14H13.55C13.6833 14 13.7957 13.9583 13.887 13.875C13.979 13.7917 14.0333 13.6833 14.05 13.55L14.15 12.75C14.2833 12.7 14.4 12.6457 14.5 12.587C14.6 12.529 14.7 12.45 14.8 12.35L15.55 12.675C15.6833 12.725 15.804 12.7333 15.912 12.7C16.0207 12.6667 16.1083 12.5917 16.175 12.475L16.725 11.525C16.7917 11.4083 16.8167 11.2873 16.8 11.162C16.7833 11.0373 16.7167 10.9417 16.6 10.875L15.95 10.4C15.9833 10.2667 16 10.1333 16 10C16 9.86667 15.9833 9.73333 15.95 9.6L16.6 9.125C16.7167 9.05833 16.7833 8.96233 16.8 8.837C16.8167 8.71233 16.7917 8.59167 16.725 8.475L16.175 7.525C16.1083 7.40833 16.0207 7.33333 15.912 7.3C15.804 7.26667 15.6833 7.275 15.55 7.325L14.8 7.65C14.7 7.55 14.6 7.47067 14.5 7.412C14.4 7.354 14.2833 7.3 14.15 7.25L14.05 6.45C14.0333 6.31667 13.979 6.20833 13.887 6.125C13.7957 6.04167 13.6833 6 13.55 6H12.45C12.3167 6 12.2043 6.04167 12.113 6.125C12.021 6.20833 11.9667 6.31667 11.95 6.45L11.85 7.25C11.7167 7.3 11.6 7.354 11.5 7.412C11.4 7.47067 11.3 7.55 11.2 7.65L10.45 7.325C10.3167 7.275 10.196 7.26667 10.088 7.3C9.97933 7.33333 9.89166 7.40833 9.825 7.525L9.275 8.475C9.20833 8.59167 9.18333 8.71233 9.2 8.837C9.21666 8.96233 9.28333 9.05833 9.4 9.125L10.05 9.6C10.0167 9.73333 10 9.86667 10 10C10 10.1333 10.0167 10.2667 10.05 10.4L9.4 10.875C9.28333 10.9417 9.21666 11.0373 9.2 11.162C9.18333 11.2873 9.20833 11.4083 9.275 11.525L9.825 12.475C9.89166 12.5917 9.97933 12.6667 10.088 12.7C10.196 12.7333 10.3167 12.725 10.45 12.675L11.2 12.35C11.3 12.45 11.4 12.529 11.5 12.587C11.6 12.6457 11.7167 12.7 11.85 12.75L11.95 13.55C11.9667 13.6833 12.021 13.7917 12.113 13.875C12.2043 13.9583 12.3167 14 12.45 14ZM13 11.5C12.5667 11.5 12.2083 11.3583 11.925 11.075C11.6417 10.7917 11.5 10.4333 11.5 10C11.5 9.56667 11.6417 9.20833 11.925 8.925C12.2083 8.64167 12.5667 8.5 13 8.5C13.4333 8.5 13.7917 8.64167 14.075 8.925C14.3583 9.20833 14.5 9.56667 14.5 10C14.5 10.4333 14.3583 10.7917 14.075 11.075C13.7917 11.3583 13.4333 11.5 13 11.5Z" fill="#262626"/>
</svg>
