<svg width="24" height="24" viewBox="0 0 24 24" fill="none" xmlns="http://www.w3.org/2000/svg">
<path d="M18.3323 0H5.33563C2.38884 0 0 2.42236 0 5.4105V18.5895C0 21.5776 2.38884 24 5.33563 24H18.3323C21.279 24 23.6679 21.5776 23.6679 18.5895V5.4105C23.6679 2.42236 21.279 0 18.3323 0Z" fill="#484848"/>
<path d="M19.7229 10.8692C19.7229 7.28873 16.183 4.37573 11.8318 4.37573C7.48065 4.37573 3.94083 7.28873 3.94083 10.8692C3.94083 14.0792 6.75139 16.768 10.5397 17.2757C10.7971 17.332 11.147 17.4475 11.235 17.6702C11.3149 17.8727 11.2875 18.19 11.2609 18.394C11.2609 18.394 11.1684 18.9587 11.1484 19.0787C11.1137 19.2812 10.9894 19.87 11.8318 19.5107C12.6743 19.1515 16.3761 16.7972 18.0314 14.8645C19.1748 13.5932 19.7229 12.3002 19.7229 10.8692Z" fill="white"/>
<path d="M17.0967 12.937H14.8778C14.8386 12.937 14.801 12.9212 14.7732 12.8931C14.7455 12.8649 14.7299 12.8268 14.7299 12.787V9.29575C14.7299 9.25597 14.7455 9.21782 14.7732 9.18969C14.801 9.16156 14.8386 9.14575 14.8778 9.14575H17.0967C17.1359 9.14575 17.1735 9.16156 17.2013 9.18969C17.229 9.21782 17.2446 9.25597 17.2446 9.29575V9.8635C17.2446 9.90328 17.229 9.94144 17.2013 9.96957C17.1735 9.9977 17.1359 10.0135 17.0967 10.0135H15.5901V10.6023H17.0967C17.1359 10.6023 17.1735 10.6181 17.2013 10.6462C17.229 10.6743 17.2446 10.7125 17.2446 10.7523V11.3253C17.2446 11.365 17.229 11.4032 17.2013 11.4313C17.1735 11.4594 17.1359 11.4753 17.0967 11.4753H15.5901V12.0648H17.0967C17.1359 12.0648 17.1735 12.0806 17.2013 12.1087C17.229 12.1368 17.2446 12.175 17.2446 12.2148V12.7818C17.2453 12.8019 17.242 12.822 17.2349 12.8408C17.2277 12.8596 17.217 12.8767 17.2031 12.8912C17.1893 12.9057 17.1728 12.9172 17.1545 12.9251C17.1362 12.933 17.1165 12.937 17.0967 12.937Z" fill="#484848"/>
<path d="M8.89719 12.9373C8.93643 12.9373 8.97405 12.9215 9.00179 12.8933C9.02953 12.8652 9.04512 12.827 9.04512 12.7873V12.2203C9.04512 12.1805 9.02953 12.1423 9.00179 12.1142C8.97405 12.0861 8.93643 12.0703 8.89719 12.0703H7.39058V9.29526C7.39058 9.25548 7.375 9.21733 7.34726 9.1892C7.31952 9.16107 7.28189 9.14526 7.24266 9.14526H6.68055C6.64132 9.14526 6.60369 9.16107 6.57595 9.1892C6.54821 9.21733 6.53262 9.25548 6.53262 9.29526V12.785C6.53262 12.8248 6.54821 12.8629 6.57595 12.8911C6.60369 12.9192 6.64132 12.935 6.68055 12.935H8.89941L8.89719 12.9373Z" fill="#484848"/>
<path d="M10.2305 9.1394H9.67139C9.58806 9.1394 9.52051 9.2079 9.52051 9.2924V12.7844C9.52051 12.8689 9.58806 12.9374 9.67139 12.9374H10.2305C10.3139 12.9374 10.3814 12.8689 10.3814 12.7844V9.2924C10.3814 9.2079 10.3139 9.1394 10.2305 9.1394Z" fill="#484848"/>
<path d="M14.0409 9.1394H13.4817C13.4425 9.1394 13.4049 9.15521 13.3771 9.18334C13.3494 9.21147 13.3338 9.24962 13.3338 9.2894V11.3639L11.7584 9.20615C11.7548 9.20044 11.7506 9.19516 11.7458 9.1904L11.737 9.1814L11.7288 9.17465H11.7244L11.7162 9.16865H11.7118L11.7037 9.16415H11.6985H11.6904H11.6852H11.6763H11.6704H11.6615H11.6556H11.6475H11.0772C11.038 9.16415 11.0004 9.17996 10.9726 9.20809C10.9449 9.23622 10.9293 9.27437 10.9293 9.31415V12.8062C10.9293 12.8459 10.9449 12.8841 10.9726 12.9122C11.0004 12.9404 11.038 12.9562 11.0772 12.9562H11.6371C11.6763 12.9562 11.714 12.9404 11.7417 12.9122C11.7694 12.8841 11.785 12.8459 11.785 12.8062V10.7114L13.3626 12.8714C13.373 12.8867 13.386 12.8999 13.4011 12.9104L13.41 12.9164H13.4144L13.4218 12.9202H13.4292H13.4344H13.4447C13.4578 12.9234 13.4712 12.9252 13.4847 12.9254H14.0409C14.0801 12.9254 14.1177 12.9096 14.1455 12.8815C14.1732 12.8533 14.1888 12.8152 14.1888 12.7754V9.2924C14.1892 9.27246 14.1857 9.25263 14.1784 9.23408C14.1711 9.21553 14.1603 9.19864 14.1465 9.18439C14.1328 9.17015 14.1163 9.15883 14.0982 9.1511C14.08 9.14338 14.0606 9.1394 14.0409 9.1394Z" fill="#484848"/>
</svg>
